<?xml version="1.0" encoding="UTF-8" standalone="no"?>
<!-- Created with Inkscape (http://www.inkscape.org/) -->

<svg
   xmlns:dc="http://purl.org/dc/elements/1.1/"
   xmlns:cc="http://creativecommons.org/ns#"
   xmlns:rdf="http://www.w3.org/1999/02/22-rdf-syntax-ns#"
   xmlns:svg="http://www.w3.org/2000/svg"
   xmlns="http://www.w3.org/2000/svg"
   xmlns:xlink="http://www.w3.org/1999/xlink"
   xmlns:sodipodi="http://sodipodi.sourceforge.net/DTD/sodipodi-0.dtd"
   xmlns:inkscape="http://www.inkscape.org/namespaces/inkscape"
   width="48"
   height="48"
   id="svg2"
   version="1.1"
   inkscape:version="0.48.2 r9819"
   sodipodi:docname="domain.svg">
  <defs
     id="defs4">
    <linearGradient
       inkscape:collect="always"
       id="linearGradient4761">
      <stop
         style="stop-color:#2e3436;stop-opacity:1;"
         offset="0"
         id="stop4763" />
      <stop
         style="stop-color:#2e3436;stop-opacity:0;"
         offset="1"
         id="stop4765" />
    </linearGradient>
    <linearGradient
       id="linearGradient4379">
      <stop
         style="stop-color:#cfcfcf;stop-opacity:0.49803922;"
         offset="0"
         id="stop4381" />
      <stop
         style="stop-color:#2e3436;stop-opacity:0;"
         offset="1"
         id="stop4383" />
    </linearGradient>
    <linearGradient
       inkscape:collect="always"
       id="linearGradient4347">
      <stop
         style="stop-color:#eeeeec;stop-opacity:1;"
         offset="0"
         id="stop4349" />
      <stop
         style="stop-color:#eeeeec;stop-opacity:0;"
         offset="1"
         id="stop4351" />
    </linearGradient>
    <linearGradient
       inkscape:collect="always"
       id="linearGradient4335">
      <stop
         style="stop-color:#eeeeec;stop-opacity:1;"
         offset="0"
         id="stop4337" />
      <stop
         style="stop-color:#eeeeec;stop-opacity:0;"
         offset="1"
         id="stop4339" />
    </linearGradient>
    <linearGradient
       id="linearGradient4321">
      <stop
         style="stop-color:#ffffff;stop-opacity:1;"
         offset="0"
         id="stop4323" />
      <stop
         style="stop-color:#ffffff;stop-opacity:0;"
         offset="1"
         id="stop4325" />
    </linearGradient>
    <linearGradient
       inkscape:collect="always"
       xlink:href="#linearGradient4347"
       id="linearGradient4373"
       gradientUnits="userSpaceOnUse"
       x1="20.779747"
       y1="1017.6078"
       x2="26.551899"
       y2="1032.3723" />
    <linearGradient
       inkscape:collect="always"
       xlink:href="#linearGradient4335"
       id="linearGradient4375"
       gradientUnits="userSpaceOnUse"
       x1="7.8987341"
       y1="1026.1141"
       x2="16.648102"
       y2="1046.347" />
    <radialGradient
       inkscape:collect="always"
       xlink:href="#linearGradient4379"
       id="radialGradient4387"
       cx="24.091139"
       cy="44.840508"
       fx="24.091139"
       fy="44.840508"
       r="17.650633"
       gradientTransform="matrix(1,0,0,0.08605852,0,40.9816)"
       gradientUnits="userSpaceOnUse" />
    <filter
       inkscape:collect="always"
       id="filter4389"
       x="-0.032581756"
       width="1.0651635"
       y="-0.37860001"
       height="1.7572">
      <feGaussianBlur
         inkscape:collect="always"
         stdDeviation="0.4792405"
         id="feGaussianBlur4391" />
    </filter>
    <linearGradient
       inkscape:collect="always"
       xlink:href="#linearGradient4335"
       id="linearGradient4754"
       gradientUnits="userSpaceOnUse"
       x1="7.8987341"
       y1="1026.1141"
       x2="16.648102"
       y2="1046.347"
       gradientTransform="translate(0,-2)" />
    <linearGradient
       inkscape:collect="always"
       xlink:href="#linearGradient4347"
       id="linearGradient4758"
       gradientUnits="userSpaceOnUse"
       x1="20.779747"
       y1="1017.6078"
       x2="26.551899"
       y2="1032.3723"
       gradientTransform="translate(0,-2)" />
    <linearGradient
       inkscape:collect="always"
       xlink:href="#linearGradient4761"
       id="linearGradient4767"
       x1="34.56076"
       y1="1038.3102"
       x2="36.494652"
       y2="1040.9227"
       gradientUnits="userSpaceOnUse" />
    <linearGradient
       inkscape:collect="always"
       xlink:href="#linearGradient4761"
       id="linearGradient4769"
       x1="34.5"
       y1="1030.9316"
       x2="36.433891"
       y2="1033.4835"
       gradientUnits="userSpaceOnUse" />
    <linearGradient
       inkscape:collect="always"
       xlink:href="#linearGradient4761"
       id="linearGradient4771"
       x1="19.93927"
       y1="1034.3658"
       x2="24.111362"
       y2="1038.6798"
       gradientUnits="userSpaceOnUse" />
    <linearGradient
       inkscape:collect="always"
       xlink:href="#linearGradient4761"
       id="linearGradient4773"
       x1="9.5"
       y1="1038.371"
       x2="11.494648"
       y2="1041.0444"
       gradientUnits="userSpaceOnUse" />
    <linearGradient
       inkscape:collect="always"
       xlink:href="#linearGradient4761"
       id="linearGradient4775"
       x1="9.4392405"
       y1="1030.8101"
       x2="11.616168"
       y2="1033.4835"
       gradientUnits="userSpaceOnUse" />
  </defs>
  <sodipodi:namedview
     id="base"
     pagecolor="#ffffff"
     bordercolor="#666666"
     borderopacity="1.0"
     inkscape:pageopacity="0.0"
     inkscape:pageshadow="2"
     inkscape:zoom="16.458333"
     inkscape:cx="24"
     inkscape:cy="24"
     inkscape:document-units="px"
     inkscape:current-layer="layer1"
     showgrid="false"
     inkscape:window-width="1601"
     inkscape:window-height="989"
     inkscape:window-x="1280"
     inkscape:window-y="22"
     inkscape:window-maximized="0">
    <inkscape:grid
       type="xygrid"
       id="grid3318"
       empspacing="5"
       visible="true"
       enabled="true"
       snapvisiblegridlinesonly="true" />
  </sodipodi:namedview>
  <metadata
     id="metadata7">
    <rdf:RDF>
      <cc:Work
         rdf:about="">
        <dc:format>image/svg+xml</dc:format>
        <dc:type
           rdf:resource="http://purl.org/dc/dcmitype/StillImage" />
        <dc:title></dc:title>
      </cc:Work>
    </rdf:RDF>
  </metadata>
  <g
     inkscape:label="Layer 1"
     inkscape:groupmode="layer"
     id="layer1"
     transform="translate(0,-1004.3622)">
    <path
       sodipodi:type="arc"
       style="opacity:0.75;fill:url(#radialGradient4387);fill-opacity:1;stroke:none;filter:url(#filter4389)"
       id="path4377"
       sodipodi:cx="24.091139"
       sodipodi:cy="44.840508"
       sodipodi:rx="17.650633"
       sodipodi:ry="1.5189873"
       d="m 41.741772,44.840508 a 17.650633,1.5189873 0 1 1 -35.301266,0 17.650633,1.5189873 0 1 1 35.301266,0 z"
       transform="matrix(1.2394785,0,0,1,-5.7693105,1002.3622)" />
    <path
       sodipodi:nodetypes="cccccccc"
       inkscape:connector-curvature="0"
       id="path4343"
       d="m 19,1030.8622 10,0 0,-10 2,0 -7,-9 -7,9 2,0 z"
       style="fill:#c17d11;stroke:none" />
    <path
       style="fill:url(#linearGradient4758);fill-opacity:1;stroke:none"
       d="m 19,1030.8622 10,0 0,-10 2,0 -7,-9 -7,9 2,0 z"
       id="path4345"
       inkscape:connector-curvature="0"
       sodipodi:nodetypes="cccccccc" />
    <path
       sodipodi:nodetypes="cscsssscsccccccccccsccccsccccccccccsccccssccccssccccssccccssccccs"
       inkscape:connector-curvature="0"
       style="fill:#e9b96e;stroke:none"
       d="m 7,1022.8622 0,6.0625 c 0,0.9228 0.6666667,0.6299 1,0.9375 l 0,14 c 0,1 0,1 1,1 l 30,0 c 1,0 1,0 1,-1 l 0,-14 c 0.333333,-0.3346 1,0 1,-1 l 0,-6 -1.5,0 0,2 -2.25,0 0,-2 -1.5,0 0,2 -2.25,0 0,-2 -1.5,0 0,6.0625 c 0,0.9228 0.666667,0.6299 1,0.9375 l 0,3 -18,0 0,-3 c 0.333333,-0.3346 1,0 1,-1 l 0,-6 -1.5,0 0,2 -2.25,0 0,-2 -1.5,0 0,2 -2.25,0 0,-2 z m 4.5,8.5 c 0.833253,0 1.5,1.3438 1.5,1.3438 l 0,2.6562 -3,0 0,-2.6562 c 0,0 0.666747,-1.3438 1.5,-1.3438 z m 25,0 c 0.833253,0 1.5,1.3438 1.5,1.3438 l 0,2.6562 -3,0 0,-2.6562 c 0,0 0.666746,-1.3438 1.5,-1.3438 z m -12.5,3.5 c 1.944428,0 3.5,2.6563 3.5,2.6563 l 0,5.3437 -7,0 0,-5.3437 c 0,0 1.555572,-2.6563 3.5,-2.6563 z m -12.5,4 c 0.833253,0 1.5,1.3438 1.5,1.3438 l 0,2.6562 -3,0 0,-2.6562 c 0,0 0.666747,-1.3438 1.5,-1.3438 z m 25,0 c 0.833253,0 1.5,1.3438 1.5,1.3438 l 0,2.6562 -3,0 0,-2.6562 c 0,0 0.666746,-1.3438 1.5,-1.3438 z"
       id="path4331" />
    <path
       id="path4333"
       d="m 7,1022.8622 0,6.0625 c 0,0.9228 0.6666667,0.6299 1,0.9375 l 0,14 c 0,1 0,1 1,1 l 30,0 c 1,0 1,0 1,-1 l 0,-14 c 0.333333,-0.3346 1,0 1,-1 l 0,-6 -1.5,0 0,2 -2.25,0 0,-2 -1.5,0 0,2 -2.25,0 0,-2 -1.5,0 0,6.0625 c 0,0.9228 0.666667,0.6299 1,0.9375 l 0,3 -18,0 0,-3 c 0.333333,-0.3346 1,0 1,-1 l 0,-6 -1.5,0 0,2 -2.25,0 0,-2 -1.5,0 0,2 -2.25,0 0,-2 z m 4.5,8.5 c 0.833253,0 1.5,1.3438 1.5,1.3438 l 0,2.6562 -3,0 0,-2.6562 c 0,0 0.666747,-1.3438 1.5,-1.3438 z m 25,0 c 0.833253,0 1.5,1.3438 1.5,1.3438 l 0,2.6562 -3,0 0,-2.6562 c 0,0 0.666746,-1.3438 1.5,-1.3438 z m -12.5,3.5 c 1.944428,0 3.5,2.6563 3.5,2.6563 l 0,5.3437 -7,0 0,-5.3437 c 0,0 1.555572,-2.6563 3.5,-2.6563 z m -12.5,4 c 0.833253,0 1.5,1.3438 1.5,1.3438 l 0,2.6562 -3,0 0,-2.6562 c 0,0 0.666747,-1.3438 1.5,-1.3438 z m 25,0 c 0.833253,0 1.5,1.3438 1.5,1.3438 l 0,2.6562 -3,0 0,-2.6562 c 0,0 0.666746,-1.3438 1.5,-1.3438 z"
       style="fill:url(#linearGradient4754);fill-opacity:1;stroke:none"
       inkscape:connector-curvature="0"
       sodipodi:nodetypes="cscsssscsccccccccccsccccsccccccccccsccccssccccssccccssccccssccccs" />
    <path
       style="fill:none;stroke:#8f5902;stroke-width:1px;stroke-linecap:butt;stroke-linejoin:round;stroke-opacity:1"
       d="m 19,1030.8622 10,0 0,-10 2,0 -7,-9 -7,9 2,0 z"
       id="path4153"
       inkscape:connector-curvature="0"
       sodipodi:nodetypes="cccccccc" />
    <path
       style="fill:#ef2929;stroke:#a40000;stroke-width:1px;stroke-linecap:butt;stroke-linejoin:round;stroke-opacity:1"
       d="m 24,1010.3622 c 0,0 1.312816,0.5 2,0.5 0.687184,0 1.312816,-0.5 2,-0.5 0.687184,0 2,0.5 2,0.5 l 0,-2.5 c 0,0 -1.312816,-0.5 -2,-0.5 -0.687184,0 -1.312816,0.5 -2,0.5 -0.687184,0 -2,-0.5 -2,-0.5 z"
       id="path4155"
       inkscape:connector-curvature="0"
       sodipodi:nodetypes="caaccaacc" />
    <path
       id="path4312"
       d="m 7,1022.8622 0,6.0625 c 0,0.9228 0.6666667,0.6299 1,0.9375 l 0,14 c 0,1 0,1 1,1 l 30,0 c 1,0 1,0 1,-1 l 0,-14 c 0.333333,-0.3346 1,0 1,-1 l 0,-6 -1.5,0 0,2 -2.25,0 0,-2 -1.5,0 0,2 -2.25,0 0,-2 -1.5,0 0,6.0625 c 0,0.9228 0.666667,0.6299 1,0.9375 l 0,3 -18,0 0,-3 c 0.333333,-0.3346 1,0 1,-1 l 0,-6 -1.5,0 0,2 -2.25,0 0,-2 -1.5,0 0,2 -2.25,0 0,-2 z m 4.5,8.5 c 0.833253,0 1.5,1.3438 1.5,1.3438 l 0,2.6562 -3,0 0,-2.6562 c 0,0 0.666747,-1.3438 1.5,-1.3438 z m 25,0 c 0.833253,0 1.5,1.3438 1.5,1.3438 l 0,2.6562 -3,0 0,-2.6562 c 0,0 0.666746,-1.3438 1.5,-1.3438 z m -12.5,3.5 c 1.944428,0 3.5,2.6563 3.5,2.6563 l 0,5.3437 -7,0 0,-5.3437 c 0,0 1.555572,-2.6563 3.5,-2.6563 z m -12.5,4 c 0.833253,0 1.5,1.3438 1.5,1.3438 l 0,2.6562 -3,0 0,-2.6562 c 0,0 0.666747,-1.3438 1.5,-1.3438 z m 25,0 c 0.833253,0 1.5,1.3438 1.5,1.3438 l 0,2.6562 -3,0 0,-2.6562 c 0,0 0.666746,-1.3438 1.5,-1.3438 z"
       style="fill:none;stroke:#c17d11;stroke-width:1px;stroke-linecap:round;stroke-linejoin:round;stroke-opacity:1"
       inkscape:connector-curvature="0"
       sodipodi:nodetypes="cscsssscsccccccccccsccccsccccccccccsccccssccccssccccssccccssccccs" />
    <path
       sodipodi:nodetypes="ccaccc"
       inkscape:connector-curvature="0"
       id="path4179"
       d="m 10,1035.3622 0,-2.6669 c 0,0 0.666603,-1.3335 1.499856,-1.3335 0.833253,0 1.499856,1.3335 1.499856,1.3335 l 0,2.6669 z"
       style="fill:url(#linearGradient4775);stroke:#c17d11;stroke-width:1;stroke-linecap:butt;stroke-linejoin:round;stroke-miterlimit:4;stroke-opacity:1;stroke-dasharray:none;fill-opacity:1" />
    <path
       style="fill:url(#linearGradient4771);stroke:#c17d11;stroke-width:0.99999994000000003;stroke-linecap:butt;stroke-linejoin:round;stroke-miterlimit:4;stroke-opacity:1;stroke-dasharray:none;fill-opacity:1"
       d="m 20.50003,1042.8622 0,-5.3333 c 0,0 1.555542,-2.6668 3.49997,-2.6668 1.944428,0 3.49997,2.6668 3.49997,2.6668 l 0,5.3333 z"
       id="path4197"
       inkscape:connector-curvature="0"
       sodipodi:nodetypes="ccaccc" />
    <path
       style="fill:url(#linearGradient4773);stroke:#c17d11;stroke-width:1;stroke-linecap:butt;stroke-linejoin:round;stroke-miterlimit:4;stroke-opacity:1;stroke-dasharray:none;fill-opacity:1"
       d="m 10,1042.8622 0,-2.6669 c 0,0 0.666603,-1.3335 1.499856,-1.3335 0.833253,0 1.499856,1.3335 1.499856,1.3335 l 0,2.6669 z"
       id="path4203"
       inkscape:connector-curvature="0"
       sodipodi:nodetypes="ccaccc" />
    <path
       style="fill:url(#linearGradient4769);stroke:#c17d11;stroke-width:1;stroke-linecap:butt;stroke-linejoin:round;stroke-miterlimit:4;stroke-opacity:1;stroke-dasharray:none;fill-opacity:1"
       d="m 35,1035.3622 0,-2.6669 c 0,0 0.666602,-1.3335 1.499856,-1.3335 0.833253,0 1.499856,1.3335 1.499856,1.3335 l 0,2.6669 z"
       id="path4225"
       inkscape:connector-curvature="0"
       sodipodi:nodetypes="ccaccc" />
    <path
       sodipodi:nodetypes="ccaccc"
       inkscape:connector-curvature="0"
       id="path4231"
       d="m 35,1042.8622 0,-2.6669 c 0,0 0.666602,-1.3335 1.499856,-1.3335 0.833253,0 1.499856,1.3335 1.499856,1.3335 l 0,2.6669 z"
       style="fill:url(#linearGradient4767);stroke:#c17d11;stroke-width:1;stroke-linecap:butt;stroke-linejoin:round;stroke-miterlimit:4;stroke-opacity:1;stroke-dasharray:none;fill-opacity:1" />
  </g>
</svg>
