<?xml version="1.0" encoding="UTF-8" standalone="no"?>
<!-- Created with Inkscape (http://www.inkscape.org/) -->

<svg
   xmlns:dc="http://purl.org/dc/elements/1.1/"
   xmlns:cc="http://creativecommons.org/ns#"
   xmlns:rdf="http://www.w3.org/1999/02/22-rdf-syntax-ns#"
   xmlns:svg="http://www.w3.org/2000/svg"
   xmlns="http://www.w3.org/2000/svg"
   xmlns:xlink="http://www.w3.org/1999/xlink"
   xmlns:sodipodi="http://sodipodi.sourceforge.net/DTD/sodipodi-0.dtd"
   xmlns:inkscape="http://www.inkscape.org/namespaces/inkscape"
   width="48"
   height="48"
   id="svg2"
   version="1.1"
   inkscape:version="0.48.2 r9819"
   sodipodi:docname="domain.svg">
  <defs
     id="defs4">
    <linearGradient
       inkscape:collect="always"
       id="linearGradient4761">
      <stop
         style="stop-color:#2e3436;stop-opacity:1;"
         offset="0"
         id="stop4763" />
      <stop
         style="stop-color:#2e3436;stop-opacity:0;"
         offset="1"
         id="stop4765" />
    </linearGradient>
    <linearGradient
       id="linearGradient4379">
      <stop
         style="stop-color:#cfcfcf;stop-opacity:0.49803922;"
         offset="0"
         id="stop4381" />
      <stop
         style="stop-color:#2e3436;stop-opacity:0;"
         offset="1"
         id="stop4383" />
    </linearGradient>
    <linearGradient
       inkscape:collect="always"
       id="linearGradient4347">
      <stop
         style="stop-color:#eeeeec;stop-opacity:1;"
         offset="0"
         id="stop4349" />
      <stop
         style="stop-color:#eeeeec;stop-opacity:0;"
         offset="1"
         id="stop4351" />
    </linearGradient>
    <linearGradient
       inkscape:collect="always"
       id="linearGradient4335">
      <stop
         style="stop-color:#eeeeec;stop-opacity:1;"
         offset="0"
         id="stop4337" />
      <stop
         style="stop-color:#eeeeec;stop-opacity:0;"
         offset="1"
         id="stop4339" />
    </linearGradient>
    <linearGradient
       id="linearGradient4321">
      <stop
         style="stop-color:#ffffff;stop-opacity:1;"
         offset="0"
         id="stop4323" />
      <stop
         style="stop-color:#ffffff;stop-opacity:0;"
         offset="1"
         id="stop4325" />
    </linearGradient>
    <radialGradient
       inkscape:collect="always"
       xlink:href="#linearGradient4379"
       id="radialGradient4387"
       cx="24.091139"
       cy="44.840508"
       fx="24.091139"
       fy="44.840508"
       r="17.650633"
       gradientTransform="matrix(1,0,0,0.08605852,0,40.9816)"
       gradientUnits="userSpaceOnUse" />
    <filter
       inkscape:collect="always"
       id="filter4389"
       x="-0.032581756"
       width="1.0651635"
       y="-0.37860001"
       height="1.7572">
      <feGaussianBlur
         inkscape:collect="always"
         stdDeviation="0.4792405"
         id="feGaussianBlur4391" />
    </filter>
    <linearGradient
       inkscape:collect="always"
       xlink:href="#linearGradient4335"
       id="linearGradient4754"
       gradientUnits="userSpaceOnUse"
       x1="7.8987341"
       y1="1026.1141"
       x2="16.648102"
       y2="1046.347"
       gradientTransform="translate(0,-2)" />
    <linearGradient
       inkscape:collect="always"
       xlink:href="#linearGradient4347"
       id="linearGradient4758"
       gradientUnits="userSpaceOnUse"
       x1="20.779747"
       y1="1017.6078"
       x2="26.551899"
       y2="1032.3723"
       gradientTransform="translate(0,-2)" />
    <linearGradient
       inkscape:collect="always"
       xlink:href="#linearGradient4761"
       id="linearGradient4767"
       x1="34.56076"
       y1="1038.3102"
       x2="36.494652"
       y2="1040.9227"
       gradientUnits="userSpaceOnUse" />
    <linearGradient
       inkscape:collect="always"
       xlink:href="#linearGradient4761"
       id="linearGradient4769"
       x1="34.5"
       y1="1030.9316"
       x2="36.433891"
       y2="1033.4835"
       gradientUnits="userSpaceOnUse" />
    <linearGradient
       inkscape:collect="always"
       xlink:href="#linearGradient4761"
       id="linearGradient4771"
       x1="19.93927"
       y1="1034.3658"
       x2="24.111362"
       y2="1038.6798"
       gradientUnits="userSpaceOnUse" />
    <linearGradient
       inkscape:collect="always"
       xlink:href="#linearGradient4761"
       id="linearGradient4773"
       x1="9.5"
       y1="1038.371"
       x2="11.494648"
       y2="1041.0444"
       gradientUnits="userSpaceOnUse" />
    <linearGradient
       inkscape:collect="always"
       xlink:href="#linearGradient4761"
       id="linearGradient4775"
       x1="9.4392405"
       y1="1030.8101"
       x2="11.616168"
       y2="1033.4835"
       gradientUnits="userSpaceOnUse" />
    <linearGradient
       inkscape:collect="always"
       xlink:href="#linearGradient2253"
       id="linearGradient1413"
       gradientUnits="userSpaceOnUse"
       gradientTransform="scale(1.104397,0.905471)"
       x1="10.390738"
       y1="5.3817744"
       x2="32.536823"
       y2="31.246054" />
    <linearGradient
       inkscape:collect="always"
       xlink:href="#linearGradient2752"
       id="linearGradient1411"
       gradientUnits="userSpaceOnUse"
       gradientTransform="scale(2.309851,0.432928)"
       x1="8.1134243"
       y1="88.509071"
       x2="8.1134233"
       y2="100.20015" />
    <linearGradient
       inkscape:collect="always"
       xlink:href="#linearGradient2752"
       id="linearGradient1409"
       gradientUnits="userSpaceOnUse"
       gradientTransform="scale(2.309851,0.432928)"
       x1="8.1134243"
       y1="88.509071"
       x2="8.1134233"
       y2="100.20015" />
    <linearGradient
       inkscape:collect="always"
       xlink:href="#linearGradient2985"
       id="linearGradient2991"
       gradientTransform="scale(1.492875,0.669848)"
       x1="-23.885700"
       y1="49.953003"
       x2="-23.885700"
       y2="44.878883"
       gradientUnits="userSpaceOnUse" />
    <linearGradient
       inkscape:collect="always"
       xlink:href="#linearGradient2245"
       id="linearGradient2981"
       gradientUnits="userSpaceOnUse"
       gradientTransform="scale(1.129863,0.885063)"
       x1="18.316999"
       y1="48.643234"
       x2="18.176752"
       y2="52.536461" />
    <linearGradient
       inkscape:collect="always"
       xlink:href="#linearGradient2253"
       id="linearGradient2979"
       gradientTransform="scale(1.104397,0.905471)"
       x1="10.390738"
       y1="5.3817744"
       x2="32.536823"
       y2="31.246054"
       gradientUnits="userSpaceOnUse" />
    <linearGradient
       inkscape:collect="always"
       xlink:href="#linearGradient2752"
       id="linearGradient2758"
       gradientTransform="scale(2.309851,0.432928)"
       x1="8.1134243"
       y1="88.509071"
       x2="8.1134233"
       y2="100.20015"
       gradientUnits="userSpaceOnUse" />
    <linearGradient
       inkscape:collect="always"
       xlink:href="#linearGradient2635"
       id="linearGradient2741"
       gradientUnits="userSpaceOnUse"
       gradientTransform="matrix(2.143634,0,0,0.466498,1,-0.508826)"
       x1="13.628710"
       y1="101.28460"
       x2="8.6485014"
       y2="74.098007" />
    <linearGradient
       inkscape:collect="always"
       xlink:href="#linearGradient2711"
       id="linearGradient2733"
       gradientUnits="userSpaceOnUse"
       x1="34.300991"
       y1="3.9384086"
       x2="35.520542"
       y2="3.8451097" />
    <linearGradient
       inkscape:collect="always"
       xlink:href="#linearGradient2711"
       id="linearGradient2729"
       gradientUnits="userSpaceOnUse"
       x1="34.300991"
       y1="3.9384086"
       x2="35.520542"
       y2="3.8451097" />
    <linearGradient
       inkscape:collect="always"
       xlink:href="#linearGradient2711"
       id="linearGradient2725"
       gradientUnits="userSpaceOnUse"
       x1="34.300991"
       y1="3.9384086"
       x2="35.520542"
       y2="3.8451097" />
    <linearGradient
       inkscape:collect="always"
       xlink:href="#linearGradient2711"
       id="linearGradient2721"
       gradientUnits="userSpaceOnUse"
       x1="34.300991"
       y1="3.9384086"
       x2="35.520542"
       y2="3.8451097" />
    <linearGradient
       inkscape:collect="always"
       xlink:href="#linearGradient2711"
       id="linearGradient2717"
       x1="34.300991"
       y1="3.9384086"
       x2="35.520542"
       y2="3.8451097"
       gradientUnits="userSpaceOnUse" />
    <linearGradient
       inkscape:collect="always"
       xlink:href="#linearGradient2701"
       id="linearGradient2707"
       gradientTransform="scale(1.816345,0.550556)"
       x1="12.206709"
       y1="53.535141"
       x2="12.127711"
       y2="64.892525"
       gradientUnits="userSpaceOnUse" />
    <linearGradient
       inkscape:collect="always"
       xlink:href="#linearGradient2683"
       id="linearGradient2689"
       gradientTransform="matrix(5.705159,0,0,0.17528,1,-0.679373)"
       x1="3.7069976"
       y1="171.29134"
       x2="3.7069974"
       y2="162.45061"
       gradientUnits="userSpaceOnUse" />
    <linearGradient
       inkscape:collect="always"
       xlink:href="#linearGradient2675"
       id="linearGradient2681"
       gradientTransform="matrix(1.174139,0,0,0.945431,0.721825,-1.331524)"
       x1="19.150396"
       y1="32.622238"
       x2="16.315819"
       y2="8.8666229"
       gradientUnits="userSpaceOnUse" />
    <linearGradient
       inkscape:collect="always"
       xlink:href="#linearGradient2667"
       id="linearGradient2673"
       gradientTransform="matrix(1.238977,0,0,0.895955,0.590553,-1.331524)"
       x1="11.492236"
       y1="1.6537577"
       x2="17.199417"
       y2="26.729263"
       gradientUnits="userSpaceOnUse" />
    <radialGradient
       inkscape:collect="always"
       xlink:href="#linearGradient2454"
       id="radialGradient2659"
       gradientUnits="userSpaceOnUse"
       gradientTransform="scale(1.925808,0.519262)"
       cx="12.575710"
       cy="67.501709"
       fx="12.575710"
       fy="67.501709"
       r="8.7662794" />
    <linearGradient
       inkscape:collect="always"
       xlink:href="#linearGradient2635"
       id="linearGradient2655"
       gradientUnits="userSpaceOnUse"
       gradientTransform="scale(2.143634,0.466498)"
       x1="13.628710"
       y1="101.28460"
       x2="8.6485014"
       y2="74.098007" />
    <linearGradient
       inkscape:collect="always"
       xlink:href="#linearGradient2623"
       id="linearGradient2653"
       gradientUnits="userSpaceOnUse"
       gradientTransform="scale(1.983556,0.504145)"
       x1="10.728384"
       y1="84.029198"
       x2="10.728384"
       y2="92.570930" />
    <radialGradient
       r="8.7662794"
       fy="67.501709"
       fx="12.575710"
       cy="67.501709"
       cx="12.575710"
       gradientTransform="scale(1.925808,0.519262)"
       gradientUnits="userSpaceOnUse"
       id="radialGradient2464"
       xlink:href="#linearGradient2454"
       inkscape:collect="always" />
    <radialGradient
       gradientUnits="userSpaceOnUse"
       r="8.7662794"
       fy="67.501709"
       fx="12.575710"
       cy="67.501709"
       cx="12.575710"
       gradientTransform="scale(1.925808,0.519262)"
       id="radialGradient2460"
       xlink:href="#linearGradient2454"
       inkscape:collect="always" />
    <linearGradient
       y2="-1.3221773"
       x2="19.994572"
       y1="30.078255"
       x1="21.356108"
       gradientTransform="matrix(1.027870,0.000000,0.000000,0.822296,1.523986,1.001198)"
       gradientUnits="userSpaceOnUse"
       id="linearGradient2445"
       xlink:href="#linearGradient2379"
       inkscape:collect="always" />
    <linearGradient
       gradientUnits="userSpaceOnUse"
       y2="55.200756"
       x2="34.974548"
       y1="13.004725"
       x1="17.698339"
       gradientTransform="matrix(1.108069,0,0,0.902471,1,1)"
       id="linearGradient2421"
       xlink:href="#linearGradient2415"
       inkscape:collect="always" />
    <linearGradient
       gradientUnits="userSpaceOnUse"
       y2="39.031910"
       x2="27.289009"
       y1="10.842293"
       x1="16.119127"
       gradientTransform="matrix(1.289166,0.000000,0.000000,0.922731,-0.789284,-0.503380)"
       id="linearGradient2334"
       xlink:href="#linearGradient2328"
       inkscape:collect="always" />
    <linearGradient
       gradientUnits="userSpaceOnUse"
       y2="53.734985"
       x2="24.418941"
       y1="9.3235140"
       x1="16.851954"
       gradientTransform="matrix(1.208393,0.000000,0.000000,0.984410,-0.789284,-0.503380)"
       id="linearGradient2313"
       xlink:href="#linearGradient2307"
       inkscape:collect="always" />
    <linearGradient
       gradientUnits="userSpaceOnUse"
       y2="33.339787"
       x2="34.784473"
       y1="7.2293582"
       x1="8.6116238"
       gradientTransform="matrix(1.129863,0,0,0.885063,-1.625,-1.304372)"
       id="linearGradient2251"
       xlink:href="#linearGradient2245"
       inkscape:collect="always" />
    <linearGradient
       id="linearGradient2245">
      <stop
         id="stop2247"
         offset="0.0000000"
         style="stop-color:#dde1d9;stop-opacity:1.0000000;" />
      <stop
         id="stop2249"
         offset="1.0000000"
         style="stop-color:#cacdc6;stop-opacity:1.0000000;" />
    </linearGradient>
    <linearGradient
       id="linearGradient2253">
      <stop
         id="stop2255"
         offset="0.0000000"
         style="stop-color:#8f8f8f;stop-opacity:1.0000000;" />
      <stop
         id="stop2257"
         offset="1.0000000"
         style="stop-color:#494949;stop-opacity:1.0000000;" />
    </linearGradient>
    <linearGradient
       id="linearGradient2307"
       inkscape:collect="always">
      <stop
         id="stop2309"
         offset="0"
         style="stop-color:#5a7aa4;stop-opacity:1;" />
      <stop
         id="stop2311"
         offset="1"
         style="stop-color:#5a7aa4;stop-opacity:0;" />
    </linearGradient>
    <linearGradient
       id="linearGradient2328"
       inkscape:collect="always">
      <stop
         id="stop2330"
         offset="0"
         style="stop-color:#ffffff;stop-opacity:1;" />
      <stop
         id="stop2332"
         offset="1"
         style="stop-color:#ffffff;stop-opacity:0;" />
    </linearGradient>
    <linearGradient
       id="linearGradient2379">
      <stop
         id="stop2381"
         offset="0.0000000"
         style="stop-color:#1a4876;stop-opacity:1.0000000;" />
      <stop
         id="stop2383"
         offset="1.0000000"
         style="stop-color:#3f54a3;stop-opacity:0.0000000;" />
    </linearGradient>
    <linearGradient
       id="linearGradient2415"
       inkscape:collect="always">
      <stop
         id="stop2417"
         offset="0"
         style="stop-color:#ffffff;stop-opacity:1;" />
      <stop
         id="stop2419"
         offset="1"
         style="stop-color:#ffffff;stop-opacity:0;" />
    </linearGradient>
    <linearGradient
       id="linearGradient2454"
       inkscape:collect="always">
      <stop
         id="stop2456"
         offset="0"
         style="stop-color:#000000;stop-opacity:1;" />
      <stop
         id="stop2458"
         offset="1"
         style="stop-color:#000000;stop-opacity:0;" />
    </linearGradient>
    <linearGradient
       id="linearGradient2623">
      <stop
         style="stop-color:#dfdfde;stop-opacity:1.0000000;"
         offset="0.0000000"
         id="stop2625" />
      <stop
         style="stop-color:#9d9f9a;stop-opacity:1.0000000;"
         offset="1.0000000"
         id="stop2627" />
    </linearGradient>
    <linearGradient
       inkscape:collect="always"
       id="linearGradient2635">
      <stop
         style="stop-color:#f9fff5;stop-opacity:1;"
         offset="0"
         id="stop2637" />
      <stop
         style="stop-color:#f9fff5;stop-opacity:0;"
         offset="1"
         id="stop2639" />
    </linearGradient>
    <linearGradient
       id="linearGradient2667">
      <stop
         style="stop-color:#ffffff;stop-opacity:1.0000000;"
         offset="0.0000000"
         id="stop2669" />
      <stop
         style="stop-color:#fcfcff;stop-opacity:0.0000000;"
         offset="1.0000000"
         id="stop2671" />
    </linearGradient>
    <linearGradient
       id="linearGradient2675">
      <stop
         style="stop-color:#5b5b97;stop-opacity:1.0000000;"
         offset="0.0000000"
         id="stop2677" />
      <stop
         style="stop-color:#1b1b43;stop-opacity:1.0000000;"
         offset="1.0000000"
         id="stop2679" />
    </linearGradient>
    <linearGradient
       inkscape:collect="always"
       id="linearGradient2683">
      <stop
         style="stop-color:#000000;stop-opacity:1;"
         offset="0"
         id="stop2685" />
      <stop
         style="stop-color:#000000;stop-opacity:0;"
         offset="1"
         id="stop2687" />
    </linearGradient>
    <linearGradient
       id="linearGradient2691">
      <stop
         style="stop-color:#868686;stop-opacity:1.0000000;"
         offset="0.0000000"
         id="stop2693" />
      <stop
         style="stop-color:#e9e9e9;stop-opacity:1.0000000;"
         offset="1.0000000"
         id="stop2695" />
    </linearGradient>
    <linearGradient
       id="linearGradient2701">
      <stop
         style="stop-color:#585956;stop-opacity:1.0000000;"
         offset="0.0000000"
         id="stop2703" />
      <stop
         style="stop-color:#bbbeb8;stop-opacity:1.0000000;"
         offset="1.0000000"
         id="stop2705" />
    </linearGradient>
    <linearGradient
       id="linearGradient2711">
      <stop
         style="stop-color:#909090;stop-opacity:1.0000000;"
         offset="0.0000000"
         id="stop2713" />
      <stop
         style="stop-color:#bebebe;stop-opacity:0.0000000;"
         offset="1.0000000"
         id="stop2715" />
    </linearGradient>
    <linearGradient
       id="linearGradient2752">
      <stop
         style="stop-color:#9d9d9d;stop-opacity:1;"
         offset="0"
         id="stop2754" />
      <stop
         style="stop-color:#b9b9b9;stop-opacity:1.0000000;"
         offset="1.0000000"
         id="stop2756" />
    </linearGradient>
    <linearGradient
       inkscape:collect="always"
       id="linearGradient2985">
      <stop
         style="stop-color:#d8dfd6;stop-opacity:1;"
         offset="0"
         id="stop2987" />
      <stop
         style="stop-color:#d8dfd6;stop-opacity:0;"
         offset="1"
         id="stop2989" />
    </linearGradient>
    <inkscape:perspective
       id="perspective112"
       inkscape:persp3d-origin="24 : 16 : 1"
       inkscape:vp_z="48 : 24 : 1"
       inkscape:vp_y="0 : 1000 : 0"
       inkscape:vp_x="0 : 24 : 1"
       sodipodi:type="inkscape:persp3d" />
    <radialGradient
       r="14.375000"
       fy="125.00000"
       fx="55.000000"
       cy="125.00000"
       cx="55.000000"
       gradientUnits="userSpaceOnUse"
       id="radialGradient2580"
       xlink:href="#linearGradient12512"
       inkscape:collect="always" />
    <linearGradient
       id="linearGradient12512">
      <stop
         style="stop-color:#ffffff;stop-opacity:1.0000000;"
         offset="0.0000000"
         id="stop12513" />
      <stop
         style="stop-color:#fff520;stop-opacity:0.89108908;"
         offset="0.50000000"
         id="stop12517" />
      <stop
         style="stop-color:#fff300;stop-opacity:0.0000000;"
         offset="1.0000000"
         id="stop12514" />
    </linearGradient>
    <linearGradient
       inkscape:collect="always"
       xlink:href="#linearGradient2635"
       id="linearGradient5501"
       gradientUnits="userSpaceOnUse"
       gradientTransform="matrix(2.143634,0,0,0.466498,0.18559025,1004.3039)"
       x1="13.628710"
       y1="101.28460"
       x2="8.6485014"
       y2="74.098007" />
    <linearGradient
       inkscape:collect="always"
       xlink:href="#linearGradient2752"
       id="linearGradient5504"
       gradientUnits="userSpaceOnUse"
       gradientTransform="matrix(2.309851,0,0,0.432928,-0.81440975,1004.8127)"
       x1="8.1134243"
       y1="88.509071"
       x2="8.1134233"
       y2="100.20015" />
    <linearGradient
       inkscape:collect="always"
       xlink:href="#linearGradient2752"
       id="linearGradient5507"
       gradientUnits="userSpaceOnUse"
       gradientTransform="matrix(2.309851,0,0,0.432928,-0.81440975,1004.8127)"
       x1="8.1134243"
       y1="88.509071"
       x2="8.1134233"
       y2="100.20015" />
    <linearGradient
       inkscape:collect="always"
       xlink:href="#linearGradient2752"
       id="linearGradient5510"
       gradientUnits="userSpaceOnUse"
       gradientTransform="matrix(2.309851,0,0,0.432928,-0.81440975,1004.8127)"
       x1="8.1134243"
       y1="88.509071"
       x2="8.1134233"
       y2="100.20015" />
    <linearGradient
       inkscape:collect="always"
       xlink:href="#linearGradient2245"
       id="linearGradient5516"
       gradientUnits="userSpaceOnUse"
       gradientTransform="matrix(1.129863,0,0,0.885063,-0.81440975,1004.8127)"
       x1="18.316999"
       y1="48.643234"
       x2="18.176752"
       y2="52.536461" />
    <linearGradient
       inkscape:collect="always"
       xlink:href="#linearGradient2253"
       id="linearGradient5518"
       gradientUnits="userSpaceOnUse"
       gradientTransform="matrix(1.104397,0,0,0.905471,-0.81440975,1004.8127)"
       x1="10.390738"
       y1="5.3817744"
       x2="32.536823"
       y2="31.246054" />
    <linearGradient
       inkscape:collect="always"
       xlink:href="#linearGradient2667"
       id="linearGradient5522"
       gradientUnits="userSpaceOnUse"
       gradientTransform="matrix(1.238977,0,0,0.895955,-0.22385675,1003.4812)"
       x1="11.492236"
       y1="1.6537577"
       x2="17.199417"
       y2="26.729263" />
    <linearGradient
       inkscape:collect="always"
       xlink:href="#linearGradient2415"
       id="linearGradient5525"
       gradientUnits="userSpaceOnUse"
       gradientTransform="matrix(1.108069,0,0,0.902471,0.18559025,1005.8127)"
       x1="17.698339"
       y1="13.004725"
       x2="34.974548"
       y2="55.200756" />
    <linearGradient
       inkscape:collect="always"
       xlink:href="#linearGradient2683"
       id="linearGradient5528"
       gradientUnits="userSpaceOnUse"
       gradientTransform="matrix(5.705159,0,0,0.17528,0.18559025,1004.1333)"
       x1="3.7069976"
       y1="171.29134"
       x2="3.7069974"
       y2="162.45061" />
    <linearGradient
       inkscape:collect="always"
       xlink:href="#linearGradient2675"
       id="linearGradient5531"
       gradientUnits="userSpaceOnUse"
       gradientTransform="matrix(1.174139,0,0,0.945431,-0.09258475,1003.4812)"
       x1="19.150396"
       y1="32.622238"
       x2="16.315819"
       y2="8.8666229" />
    <linearGradient
       inkscape:collect="always"
       xlink:href="#linearGradient2245"
       id="linearGradient5534"
       gradientUnits="userSpaceOnUse"
       gradientTransform="matrix(1.129863,0,0,0.885063,-2.4394098,1003.5083)"
       x1="8.6116238"
       y1="7.2293582"
       x2="34.784473"
       y2="33.339787" />
    <linearGradient
       inkscape:collect="always"
       xlink:href="#linearGradient2253"
       id="linearGradient5536"
       gradientUnits="userSpaceOnUse"
       gradientTransform="matrix(1.104397,0,0,0.905471,-0.81440975,1004.8127)"
       x1="10.390738"
       y1="5.3817744"
       x2="32.536823"
       y2="31.246054" />
    <linearGradient
       inkscape:collect="always"
       xlink:href="#linearGradient2701"
       id="linearGradient5539"
       gradientUnits="userSpaceOnUse"
       gradientTransform="matrix(1.816345,0,0,0.550556,-0.81440975,1004.8127)"
       x1="12.206709"
       y1="53.535141"
       x2="12.127711"
       y2="64.892525" />
  </defs>
  <sodipodi:namedview
     id="base"
     pagecolor="#ffffff"
     bordercolor="#666666"
     borderopacity="1.0"
     inkscape:pageopacity="0.0"
     inkscape:pageshadow="2"
     inkscape:zoom="16.458333"
     inkscape:cx="24"
     inkscape:cy="24"
     inkscape:document-units="px"
     inkscape:current-layer="layer1"
     showgrid="false"
     inkscape:window-width="1601"
     inkscape:window-height="989"
     inkscape:window-x="1280"
     inkscape:window-y="22"
     inkscape:window-maximized="0">
    <inkscape:grid
       type="xygrid"
       id="grid3318"
       empspacing="5"
       visible="true"
       enabled="true"
       snapvisiblegridlinesonly="true" />
  </sodipodi:namedview>
  <metadata
     id="metadata7">
    <rdf:RDF>
      <cc:Work
         rdf:about="">
        <dc:format>image/svg+xml</dc:format>
        <dc:type
           rdf:resource="http://purl.org/dc/dcmitype/StillImage" />
        <dc:title></dc:title>
      </cc:Work>
    </rdf:RDF>
  </metadata>
  <g
     inkscape:label="Layer 1"
     inkscape:groupmode="layer"
     id="layer1"
     transform="translate(0,-1004.3622)">
    <path
       sodipodi:type="arc"
       style="opacity:0.75;fill:url(#radialGradient4387);fill-opacity:1;stroke:none;filter:url(#filter4389)"
       id="path4377"
       sodipodi:cx="24.091139"
       sodipodi:cy="44.840508"
       sodipodi:rx="17.650633"
       sodipodi:ry="1.5189873"
       d="m 41.741772,44.840508 a 17.650633,1.5189873 0 1 1 -35.301266,0 17.650633,1.5189873 0 1 1 35.301266,0 z"
       transform="matrix(1.2394785,0,0,1.3922718,-5.7693105,983.36839)" />
    <path
       sodipodi:nodetypes="cccccccc"
       inkscape:connector-curvature="0"
       id="path4343"
       d="m 19,1030.8622 10,0 0,-10 2,0 -7,-9 -7,9 2,0 z"
       style="fill:#c17d11;stroke:none" />
    <path
       style="fill:url(#linearGradient4758);fill-opacity:1;stroke:none"
       d="m 19,1030.8622 10,0 0,-10 2,0 -7,-9 -7,9 2,0 z"
       id="path4345"
       inkscape:connector-curvature="0"
       sodipodi:nodetypes="cccccccc" />
    <path
       sodipodi:nodetypes="cscsssscsccccccccccsccccsccccccccccsccccssccccssccccssccccssccccs"
       inkscape:connector-curvature="0"
       style="fill:#e9b96e;stroke:none"
       d="m 7,1022.8622 0,6.0625 c 0,0.9228 0.6666667,0.6299 1,0.9375 l 0,14 c 0,1 0,1 1,1 l 30,0 c 1,0 1,0 1,-1 l 0,-14 c 0.333333,-0.3346 1,0 1,-1 l 0,-6 -1.5,0 0,2 -2.25,0 0,-2 -1.5,0 0,2 -2.25,0 0,-2 -1.5,0 0,6.0625 c 0,0.9228 0.666667,0.6299 1,0.9375 l 0,3 -18,0 0,-3 c 0.333333,-0.3346 1,0 1,-1 l 0,-6 -1.5,0 0,2 -2.25,0 0,-2 -1.5,0 0,2 -2.25,0 0,-2 z m 4.5,8.5 c 0.833253,0 1.5,1.3438 1.5,1.3438 l 0,2.6562 -3,0 0,-2.6562 c 0,0 0.666747,-1.3438 1.5,-1.3438 z m 25,0 c 0.833253,0 1.5,1.3438 1.5,1.3438 l 0,2.6562 -3,0 0,-2.6562 c 0,0 0.666746,-1.3438 1.5,-1.3438 z m -12.5,3.5 c 1.944428,0 3.5,2.6563 3.5,2.6563 l 0,5.3437 -7,0 0,-5.3437 c 0,0 1.555572,-2.6563 3.5,-2.6563 z m -12.5,4 c 0.833253,0 1.5,1.3438 1.5,1.3438 l 0,2.6562 -3,0 0,-2.6562 c 0,0 0.666747,-1.3438 1.5,-1.3438 z m 25,0 c 0.833253,0 1.5,1.3438 1.5,1.3438 l 0,2.6562 -3,0 0,-2.6562 c 0,0 0.666746,-1.3438 1.5,-1.3438 z"
       id="path4331" />
    <path
       id="path4333"
       d="m 7,1022.8622 0,6.0625 c 0,0.9228 0.6666667,0.6299 1,0.9375 l 0,14 c 0,1 0,1 1,1 l 30,0 c 1,0 1,0 1,-1 l 0,-14 c 0.333333,-0.3346 1,0 1,-1 l 0,-6 -1.5,0 0,2 -2.25,0 0,-2 -1.5,0 0,2 -2.25,0 0,-2 -1.5,0 0,6.0625 c 0,0.9228 0.666667,0.6299 1,0.9375 l 0,3 -18,0 0,-3 c 0.333333,-0.3346 1,0 1,-1 l 0,-6 -1.5,0 0,2 -2.25,0 0,-2 -1.5,0 0,2 -2.25,0 0,-2 z m 4.5,8.5 c 0.833253,0 1.5,1.3438 1.5,1.3438 l 0,2.6562 -3,0 0,-2.6562 c 0,0 0.666747,-1.3438 1.5,-1.3438 z m 25,0 c 0.833253,0 1.5,1.3438 1.5,1.3438 l 0,2.6562 -3,0 0,-2.6562 c 0,0 0.666746,-1.3438 1.5,-1.3438 z m -12.5,3.5 c 1.944428,0 3.5,2.6563 3.5,2.6563 l 0,5.3437 -7,0 0,-5.3437 c 0,0 1.555572,-2.6563 3.5,-2.6563 z m -12.5,4 c 0.833253,0 1.5,1.3438 1.5,1.3438 l 0,2.6562 -3,0 0,-2.6562 c 0,0 0.666747,-1.3438 1.5,-1.3438 z m 25,0 c 0.833253,0 1.5,1.3438 1.5,1.3438 l 0,2.6562 -3,0 0,-2.6562 c 0,0 0.666746,-1.3438 1.5,-1.3438 z"
       style="fill:url(#linearGradient4754);fill-opacity:1;stroke:none"
       inkscape:connector-curvature="0"
       sodipodi:nodetypes="cscsssscsccccccccccsccccsccccccccccsccccssccccssccccssccccssccccs" />
    <path
       style="fill:none;stroke:#8f5902;stroke-width:1px;stroke-linecap:butt;stroke-linejoin:round;stroke-opacity:1"
       d="m 19,1030.8622 10,0 0,-10 2,0 -7,-9 -7,9 2,0 z"
       id="path4153"
       inkscape:connector-curvature="0"
       sodipodi:nodetypes="cccccccc" />
    <path
       style="fill:#ef2929;stroke:#a40000;stroke-width:1px;stroke-linecap:butt;stroke-linejoin:round;stroke-opacity:1"
       d="m 24,1010.3622 c 0,0 1.312816,0.5 2,0.5 0.687184,0 1.312816,-0.5 2,-0.5 0.687184,0 2,0.5 2,0.5 l 0,-2.5 c 0,0 -1.312816,-0.5 -2,-0.5 -0.687184,0 -1.312816,0.5 -2,0.5 -0.687184,0 -2,-0.5 -2,-0.5 z"
       id="path4155"
       inkscape:connector-curvature="0"
       sodipodi:nodetypes="caaccaacc" />
    <path
       id="path4312"
       d="m 7,1022.8622 0,6.0625 c 0,0.9228 0.6666667,0.6299 1,0.9375 l 0,14 c 0,1 0,1 1,1 l 30,0 c 1,0 1,0 1,-1 l 0,-14 c 0.333333,-0.3346 1,0 1,-1 l 0,-6 -1.5,0 0,2 -2.25,0 0,-2 -1.5,0 0,2 -2.25,0 0,-2 -1.5,0 0,6.0625 c 0,0.9228 0.666667,0.6299 1,0.9375 l 0,3 -18,0 0,-3 c 0.333333,-0.3346 1,0 1,-1 l 0,-6 -1.5,0 0,2 -2.25,0 0,-2 -1.5,0 0,2 -2.25,0 0,-2 z m 4.5,8.5 c 0.833253,0 1.5,1.3438 1.5,1.3438 l 0,2.6562 -3,0 0,-2.6562 c 0,0 0.666747,-1.3438 1.5,-1.3438 z m 25,0 c 0.833253,0 1.5,1.3438 1.5,1.3438 l 0,2.6562 -3,0 0,-2.6562 c 0,0 0.666746,-1.3438 1.5,-1.3438 z m -12.5,3.5 c 1.944428,0 3.5,2.6563 3.5,2.6563 l 0,5.3437 -7,0 0,-5.3437 c 0,0 1.555572,-2.6563 3.5,-2.6563 z m -12.5,4 c 0.833253,0 1.5,1.3438 1.5,1.3438 l 0,2.6562 -3,0 0,-2.6562 c 0,0 0.666747,-1.3438 1.5,-1.3438 z m 25,0 c 0.833253,0 1.5,1.3438 1.5,1.3438 l 0,2.6562 -3,0 0,-2.6562 c 0,0 0.666746,-1.3438 1.5,-1.3438 z"
       style="fill:none;stroke:#c17d11;stroke-width:1px;stroke-linecap:round;stroke-linejoin:round;stroke-opacity:1"
       inkscape:connector-curvature="0"
       sodipodi:nodetypes="cscsssscsccccccccccsccccsccccccccccsccccssccccssccccssccccssccccs" />
    <path
       sodipodi:nodetypes="ccaccc"
       inkscape:connector-curvature="0"
       id="path4179"
       d="m 10,1035.3622 0,-2.6669 c 0,0 0.666603,-1.3335 1.499856,-1.3335 0.833253,0 1.499856,1.3335 1.499856,1.3335 l 0,2.6669 z"
       style="fill:url(#linearGradient4775);stroke:#c17d11;stroke-width:1;stroke-linecap:butt;stroke-linejoin:round;stroke-miterlimit:4;stroke-opacity:1;stroke-dasharray:none;fill-opacity:1" />
    <path
       style="fill:url(#linearGradient4771);stroke:#c17d11;stroke-width:0.99999994000000003;stroke-linecap:butt;stroke-linejoin:round;stroke-miterlimit:4;stroke-opacity:1;stroke-dasharray:none;fill-opacity:1"
       d="m 20.50003,1042.8622 0,-5.3333 c 0,0 1.555542,-2.6668 3.49997,-2.6668 1.944428,0 3.49997,2.6668 3.49997,2.6668 l 0,5.3333 z"
       id="path4197"
       inkscape:connector-curvature="0"
       sodipodi:nodetypes="ccaccc" />
    <path
       style="fill:url(#linearGradient4773);stroke:#c17d11;stroke-width:1;stroke-linecap:butt;stroke-linejoin:round;stroke-miterlimit:4;stroke-opacity:1;stroke-dasharray:none;fill-opacity:1"
       d="m 10,1042.8622 0,-2.6669 c 0,0 0.666603,-1.3335 1.499856,-1.3335 0.833253,0 1.499856,1.3335 1.499856,1.3335 l 0,2.6669 z"
       id="path4203"
       inkscape:connector-curvature="0"
       sodipodi:nodetypes="ccaccc" />
    <path
       style="fill:url(#linearGradient4769);stroke:#c17d11;stroke-width:1;stroke-linecap:butt;stroke-linejoin:round;stroke-miterlimit:4;stroke-opacity:1;stroke-dasharray:none;fill-opacity:1"
       d="m 35,1035.3622 0,-2.6669 c 0,0 0.666602,-1.3335 1.499856,-1.3335 0.833253,0 1.499856,1.3335 1.499856,1.3335 l 0,2.6669 z"
       id="path4225"
       inkscape:connector-curvature="0"
       sodipodi:nodetypes="ccaccc" />
    <path
       sodipodi:nodetypes="ccaccc"
       inkscape:connector-curvature="0"
       id="path4231"
       d="m 35,1042.8622 0,-2.6669 c 0,0 0.666602,-1.3335 1.499856,-1.3335 0.833253,0 1.499856,1.3335 1.499856,1.3335 l 0,2.6669 z"
       style="fill:url(#linearGradient4767);stroke:#c17d11;stroke-width:1;stroke-linecap:butt;stroke-linejoin:round;stroke-miterlimit:4;stroke-opacity:1;stroke-dasharray:none;fill-opacity:1" />
    <path
       inkscape:export-ydpi="33.852203"
       inkscape:export-xdpi="33.852203"
       inkscape:export-filename="/home/jimmac/ximian_art/icons/nautilus/suse93/stock_new-16.png"
       transform="matrix(0.611127,0,0,0.611127,4.4201313,937.16829)"
       d="m 69.375,125 a 14.375,14.375 0 1 1 -28.75,0 14.375,14.375 0 1 1 28.75,0 z"
       sodipodi:ry="14.375"
       sodipodi:rx="14.375"
       sodipodi:cy="125"
       sodipodi:cx="55"
       id="path12511"
       style="fill:url(#radialGradient2580);fill-opacity:1;fill-rule:nonzero;stroke:none;stroke-width:1.25000024;marker:none;visibility:visible;display:block"
       sodipodi:type="arc" />
  </g>
</svg>
