<?xml version="1.0" encoding="UTF-8" standalone="no"?>
<svg xmlns="http://www.w3.org/2000/svg" xmlns:xlink="http://www.w3.org/1999/xlink" version="1.1" width="127.5"
     height="127.5">
    <defs>
        <linearGradient gradientUnits="userSpaceOnUse" id="d" y2="57.513901" x2="83.1838" y1="35.413502" x1="68.715599">
            <stop offset="0" stop-color="#fff"/>
            <stop offset="1" stop-color="#979797"/>
        </linearGradient>
        <linearGradient gradientUnits="userSpaceOnUse" id="k" y2="120.559" x2="109.087" y1="120.559" x1="1.12792">
            <stop offset="0" stop-color="#f2f2f2"/>
            <stop offset="1" stop-color="#858397"/>
        </linearGradient>
        <linearGradient gradientUnits="userSpaceOnUse" id="j" y2="102.331" x2="24.7083" y1="62.425701" x1="30.8943">
            <stop offset="0" stop-color="#fff" stop-opacity="0"/>
            <stop offset="1" stop-color="#fff"/>
        </linearGradient>
        <linearGradient gradientUnits="userSpaceOnUse" id="i" y2="96.025497" x2="6.01124" y1="104.102" x1="13.1868">
            <stop offset="0" stop-color="#797b97"/>
            <stop offset="1" stop-color="#fff"/>
        </linearGradient>
        <linearGradient gradientUnits="userSpaceOnUse" id="h" y2="107.804" x2="24.6336" y1="112.828" x1="3.8431599">
            <stop offset="0" stop-color="#fff"/>
            <stop offset="1" stop-color="#979797" stop-opacity="0"/>
        </linearGradient>
        <linearGradient gradientUnits="userSpaceOnUse" id="g" y2="74.022102" x2="57.624001" y1="83.289299"
                        x1="63.100601">
            <stop offset="0" stop-color="#fff" stop-opacity="0"/>
            <stop offset="1" stop-color="#fff"/>
        </linearGradient>
        <linearGradient gradientUnits="userSpaceOnUse" id="f" y2="72.308701" x2="75.546997" y1="46.0284" x1="84.804703">
            <stop offset="0" stop-color="#f2f2f2"/>
            <stop offset="1" stop-color="#858397"/>
        </linearGradient>
        <linearGradient gradientUnits="userSpaceOnUse" id="e" y2="107.275" x2="44.979099" y1="111.905" x1="58.852299">
            <stop offset="0" stop-color="#f2f2f2"/>
            <stop offset="1" stop-color="#858397"/>
        </linearGradient>
        <linearGradient gradientUnits="userSpaceOnUse" id="c" y2="35.799" x2="65.349197" y1="55.8927" x1="66.753403">
            <stop offset="0" stop-color="#fff"/>
            <stop offset="1" stop-color="#979797"/>
        </linearGradient>
        <linearGradient gradientUnits="userSpaceOnUse" id="b" y2="51.693298" x2="70.987297" y1="50.4006" x1="69.431503">
            <stop offset="0" stop-color="#fff"/>
            <stop offset="1" stop-color="#979797"/>
        </linearGradient>
        <linearGradient gradientUnits="userSpaceOnUse" id="a" y2="59.480701" x2="96.668999" y1="66.357201" x1="107.964">
            <stop offset="0" stop-color="#fff"/>
            <stop offset="1" stop-color="#979797" stop-opacity="0"/>
        </linearGradient>
        <linearGradient y2="57.497055" x2="100.60335" y1="66.816483" x1="103.44018"
                        gradientTransform="matrix(1 0 0 -1.2388 0 147.874)" gradientUnits="userSpaceOnUse" id="z"
                        xlink:href="#a"/>
        <linearGradient y2="51.693298" x2="70.987297" y1="50.4006" x1="69.431503"
                        gradientTransform="matrix(1 0 0 -1.2388 0 147.874)" gradientUnits="userSpaceOnUse" id="y"
                        xlink:href="#b"/>
        <linearGradient y2="35.799" x2="65.349197" y1="55.8927" x1="66.753403"
                        gradientTransform="matrix(1 0 0 -1.2388 0 147.874)" gradientUnits="userSpaceOnUse" id="x"
                        xlink:href="#c"/>
        <linearGradient y2="57.513901" x2="83.1838" y1="35.413502" x1="68.715599"
                        gradientTransform="matrix(1 0 0 -1.2388 -.25 147.624)" gradientUnits="userSpaceOnUse" id="w"
                        xlink:href="#d"/>
        <linearGradient y2="107.275" x2="44.979099" y1="111.905" x1="58.852299"
                        gradientTransform="matrix(1 0 0 -1.2388 0 147.874)" gradientUnits="userSpaceOnUse" id="v"
                        xlink:href="#e"/>
        <linearGradient y2="72.308701" x2="75.546997" y1="46.0284" x1="84.804703"
                        gradientTransform="matrix(1 0 0 -1.2388 0 147.874)" gradientUnits="userSpaceOnUse" id="u"
                        xlink:href="#f"/>
        <linearGradient y2="73.160408" x2="62.948997" y1="83.289299" x1="63.100601"
                        gradientTransform="matrix(1 0 0 -1.2388 0 147.874)" gradientUnits="userSpaceOnUse" id="t"
                        xlink:href="#g"/>
        <linearGradient y2="107.804" x2="24.6336" y1="112.828" x1="3.8431599"
                        gradientTransform="matrix(1 0 0 -1.2388 0 147.874)" gradientUnits="userSpaceOnUse" id="q"
                        xlink:href="#h"/>
        <linearGradient y2="96.025497" x2="6.01124" y1="104.102" x1="13.1868"
                        gradientTransform="matrix(1 0 0 -1.2388 0 147.874)" gradientUnits="userSpaceOnUse" id="p"
                        xlink:href="#i"/>
        <linearGradient y2="102.331" x2="24.7083" y1="62.425701" x1="30.8943"
                        gradientTransform="matrix(1 0 0 -1.2388 0 147.874)" gradientUnits="userSpaceOnUse" id="o"
                        xlink:href="#j"/>
        <linearGradient y2="120.559" x2="109.087" y1="120.559" x1="1.12792"
                        gradientTransform="matrix(1 0 0 -1.2388 0 147.874)" gradientUnits="userSpaceOnUse" id="n"
                        xlink:href="#k"/>
        <linearGradient y2="90.302635" x2="90.729721" y1="99.863213" x1="11.83294"
                        gradientTransform="matrix(1 0 0 -1.2388 0 147.874)" gradientUnits="userSpaceOnUse" id="r"
                        xlink:href="#l"/>
        <linearGradient gradientUnits="userSpaceOnUse" id="l" y2="76.347198" x2="88.568703" y1="111.202" x1="19.3965">
            <stop offset="0" stop-color="#0969f9"/>
            <stop offset=".31599569" stop-color="#0092ff"/>
            <stop offset=".61937124" stop-color="#2fc9f9"/>
            <stop offset="1" stop-color="#a9f0f7"/>
        </linearGradient>
        <linearGradient y2="109.95671" x2="18.842571" y1="103.35242" x1="37.86393"
                        gradientTransform="matrix(1 0 0 -1.2388 0 147.874)" gradientUnits="userSpaceOnUse" id="s"
                        xlink:href="#m"/>
        <linearGradient gradientUnits="userSpaceOnUse" id="m" y2="115.19" x2="16.1413" y1="101.608" x1="33.541901">
            <stop offset="0" stop-color="#fff" stop-opacity="0"/>
            <stop offset="1" stop-color="#fff"/>
        </linearGradient>
    </defs>
    <path d="M105.531 49.062772c-.349-.384526-23.7487-24.978497-43.7446-34.924036C31.6381-.8558198 15.8771 2.3551757 11.4226 3.924748c-5.05643 1.5955873-9.10943 4.635627-9.43056 11.94089C1.62792 20.71434 3.54777 39.01974 11.9988 53.515303c7.2144 12.534032 37.9926 43.861183 41.228 43.329486l52.5672-12.13848c.803-.185326 1.725-1.59695 1.76-2.399822.3-9.369368.695-18.995789.995-28.365157.038-2.124807-2.159-3.932974-3.018-4.878558z"
          fill="url(#n)" fill-rule="evenodd"/>
    <path d="M50.8739 67.068256l2.2024 28.188379c-8.8404-7.834854-29.3657-25.781619-39.4423-39.574777C3.55738 41.888576 3.92952 32.2489 5.28141 14.929097 15.0875 33.091662 38.8341 56.07134 50.8739 67.068256z"
          fill="url(#o)" fill-opacity=".75" fill-rule="evenodd"/>
    <path d="M53.8522 62.827314C45.9531 55.566153 8.48622 26.051877 6.24732 10.889338c-2.75739 4.558821.18445 15.316771 7.65708 23.301768 11.3134 12.088928 24.9637 24.394523 36.9927 35.493269l2.9551-6.857061z"
          fill="url(#p)" fill-opacity=".75" fill-rule="evenodd"/>
    <path d="M21.3607 2.5050717c-5.0128.0037165-8.2612.8324804-9.9316 1.4209151C6.37266 5.5215741 2.31661 8.5702855 1.99548 15.874309 1.63136 20.723012 3.5516 39.018501 12.0026 53.514065c3.0892 5.36702 10.5157 14.137547 18.2333 22.41924l39.9984-56.880209c-2.8365-1.840872-5.6764-3.536803-8.4525-4.918076C42.9391 4.7634224 29.7155 2.4988777 21.3607 2.5050717z"
          fill="url(#q)" fill-rule="evenodd"/>
    <path d="M16.6213 23.158512c9.636 11.09503 17.8288 21.77605 34.7889 30.665751 6.4127 3.302419 42.6598-3.687318 39.5879-9.878024-4.6338-8.90853-29.2939-25.770221-45.0431-32.708796-9.3771-4.0756845-24.325-6.2881991-32.6543-2.2893204-6.67017 2.8282034.3449 9.9835694 3.3206 14.2103894z"
          fill="url(#r)" fill-opacity=".75" fill-rule="evenodd"/>
    <path d="M43.8253 15.403561c0 3.867565-6.1749 6.742843-14.8353 6.742843s-12.7008-1.98829-15.7883-6.275811c-2.6873-3.686699-.9835-7.2098744 11.9461-7.4749797 8.6604 0 18.6775 3.1403837 18.6775 7.0079477z"
          fill="url(#s)" fill-opacity=".75" fill-rule="evenodd"/>
    <path d="M88.3937 42.730223c-5.1208 2.937715-17.3036 5.924609-29.0254 5.924609-10.5511 0-13.576-3.474862-19.4407-6.544385C44.5455 47.244943 47.1072 52.6189 60.0174 52.6189c13.8145 0 26.1566-5.142176 28.3763-9.888677z"
          fill="url(#t)" fill-opacity=".75" fill-rule="evenodd"/>
    <path d="M52.9049 64.242407c-1.1071.467403-1.3044 3.70367-1.8327 5.355623l-.0755 23.47545c0 1.464893.952 2.64424 2.1346 2.64424l52.0947-11.212965c1.102-.330515 1.948-1.146271 2.134-2.644364l.906-27.495512c0-1.465016-.952-2.644364-2.135-2.644364L52.9049 64.242407z"
          fill="url(#u)" fill-opacity=".75" fill-rule="evenodd"/>
    <path d="M22.6191 3.1269544c-4.8378.1647617-8.0866.6751514-9.7908 1.0901528-2.3435.5438375-4.19448 2.0068722-5.6829 2.6547698.94406-.3381951 3.6226-1.9474093 4.8491-2.1369473C16.514 4.002793 29.8695.78436465 60.0179 15.777682c19.9959 9.945662 44.7691 36.292549 45.1461 36.713249.804-.247762 1.809.585214 2.613.337576.592-1.344357-25.4237-28.171035-45.4196-38.116202C43.5147 5.3407078 30.682 2.8519385 22.6191 3.1269544z"
          fill="url(#v)" fill-rule="evenodd"/>
    <path d="M21.3607 1.3827099c-5.0914.0037164-8.4322.8399132-10.1882 1.4593182-2.6055.821331-5.00355 2.0217379-6.85259 4.0756849-.92452 1.0269735-1.6915 2.2794104-2.24897 3.75855-.55746 1.479139-.89537 3.173831-.98109 5.123718-.05135.683823-.06556 1.495243-.03019 2.523456.03537 1.028212.12357 2.233574.2566 3.571489.26605 2.67744.73808 5.913955 1.49428 9.461659 1.51239 7.095532 4.1401 15.415132 8.45246 22.811943.9384 1.630274 2.2339 3.513884 3.7886 5.590749 1.5546 2.076865 3.3733 4.336826 5.3582 6.694034 3.97 4.714168 8.6025 9.81088 13.1165 14.491104 4.514 4.680224 8.8946 8.939253 12.3769 12.023023 1.7411 1.541823 3.2579 2.784225 4.4677 3.646189.6049.430858 1.1334.775371 1.6 1.00963.2332.117192.4453.217659.6641.280467.2188.06293.4414.10022.7094.05612h.0302l.0151-.01871 52.5713-12.135135c.374-.08622.676-.288643.951-.523521.275-.235002.528-.503205.74-.804112.211-.300783.385-.630554.528-.972218.143-.341788.252-.692619.272-1.140696v-.01871c.3-9.36082.695-18.987365.996-28.36528v-.01871c.014-.774133-.169-1.486449-.438-2.094209-.269-.607636-.619-1.124592-.981-1.589269-.362-.464802-.749-.868034-1.087-1.215397-.337-.347362-.637-.645048-.815-.841399-.016-.01796-.027-.01809-.045-.03741-.018-.01933-.032-.04485-.06-.07483-.057-.05983-.143-.140109-.242-.243054-.198-.206014-.472-.512372-.83-.878812-.717-.733004-1.736-1.766791-3.019-3.029138-2.5648-2.524682-6.1725-5.952221-10.3844-9.685747-8.4237-7.466803-19.2935-16.130917-29.4177-21.166679C43.197 3.6906129 29.8466 1.3777546 21.3607 1.3827099zm0 2.2447237c8.2238-.00619 21.3355 2.2273804 40.089 11.5556194 9.8718 4.909404 20.693 13.510338 29.0555 20.922882 4.1812 3.706272 7.7483 7.105318 10.2938 9.610936 1.273 1.252808 2.281 2.285976 2.989 3.010432.354.362228.637.640093.83.841399.096.100716.173.186689.226.243055.027.02824.046.05884.061.07482.015.01598.035.02465.03.01871.251.276379.545.554863.86.878812.315.323949.646.676019.936 1.047166.289.371024.535.763355.694 1.121866.159.358512.217.683947.212.972342-.301 9.36082-.681 18.949953-.982 28.327869.002-.04658-.01.06974-.075.224348-.065.154604-.178.347982-.302.523521-.123.175663-.267.341788-.392.448821-.125.106909-.229.143083-.257.149524L53.1029 95.734815c.0155-.0026-.0199.00062-.0151 0 .0156-.0022.0219.00062-.0453-.01871-.0879-.02527-.2208-.08213-.3924-.168354-.3433-.172314-.8132-.479539-1.3736-.878808-1.1208-.798413-2.6047-1.999191-4.3168-3.515247-3.4241-3.032235-7.7844-7.277637-12.2712-11.929493-4.4867-4.651855-9.0947-9.710783-13.0259-14.378991-1.9656-2.334166-3.7608-4.585827-5.2828-6.61921-1.522-2.033259-2.7724-3.863229-3.6376-5.366401h-.0151c-4.1386-7.098753-6.69642-15.170715-8.16569-22.063949-.73463-3.446617-1.19339-6.608928-1.449-9.180697-.1278-1.285885-.20856-2.426829-.2415-3.384429-.03294-.9576-.00949-1.734334.03019-2.262067v-.0384c.07484-1.702128.36426-3.123043.81506-4.318495.4508-1.19669 1.06542-2.184022 1.82634-3.0288904 1.52185-1.6909757 3.64694-2.7984718 6.0979-3.5714892h.0302c1.5848-.5587033 4.7559-1.3800344 9.6901-1.3837508z"
          fill="#797997" fill-rule="evenodd"/>
    <path d="M105.079 51.145708L56.8994 61.570046c-7.327 1.585305-5.7477 6.131614-5.9903 24.763688.872-18.807985 2.8502-20.680942 4.1577-20.988043l50.3212-11.821716c1.892-.23141 2.883.992163 2.845 2.709649.159-3.56034-1.066-5.65046-3.154-5.087916z"
          fill="#fff" fill-rule="evenodd"/>
    <path d="M32.106 17.429016l1.5752 4.143819 1.802-.678868 21.6411 16.134386c-2.6022-.16662-6.3814-.833967-8.2575-2.228496-1.8198-1.35278-3.6403-2.706056-5.4601-4.058713.1551-.47434-.1726-1.120256-.9679-1.711416-1.1858-.881537-2.9364-1.300131-3.9075-.934434-.9711.365697-.7969 1.377804.389 2.259341.803.596859 1.8622.974325 2.7658 1.046919 1.8161 1.349931 3.6328 2.700358 5.4489 4.050413 1.9464 1.446806 8.5761 3.097892 12.1494 3.185476l2.8172 2.101022c-.6056.684814-.1923 1.816839 1.1814 2.83799 1.7129 1.273249 4.2415 1.877912 5.6442 1.349807 1.4027-.528229 1.151-1.990272-.5619-3.263521-1.3377-.994393-3.1643-1.570192-4.5723-1.527824l-6.9808-5.202755c1.0668-1.777692.909-5.183552-1.7871-7.187575-1.7837-1.326023-3.5682-2.652416-5.3519-3.977819l.9071-.341912-4.1772-3.105696-3.4208 1.288362 4.1772 3.105201.7849-.29558c1.7838 1.326022 3.5682 2.652416 5.352 3.978314 1.8684 1.38883 1.7151 3.484525 1.2581 4.851676L37.1447 20.268368l1.7318-.652853-6.7705-2.186499z"
          fill-rule="evenodd"/>
    <path d="M57.5568 71.6101l41.0906-9.784 26.8956 21.948-.427 12.69272-43.7586 12.95733-23.9073-25.91454.1067-11.89951z"
          fill="url(#w)" fill-rule="evenodd"/>
    <path d="M99.0935 60.881144l-.3622.09353L57.631 70.75384l-.7245.168354v.916224l-.1056 11.910787-.0151.523521.3169.336584 23.9085 25.91578.3472.374.4528-.13094 43.7718-12.957832.664-.205767.03-.8414.423-12.696068.015-.635757-.423-.336585-26.8966-21.951837-.3019-.26176zm-.3773 2.393381L124.874 84.60931l-.378 11.218912-42.6395 12.621368-23.2444-25.186618.0906-10.471042 40.0135-9.517405z"
          fill="#797997" fill-rule="evenodd"/>
    <path d="M81.934 96.763647l-.0732 11.736983-23.2669-25.236791.1169-10.443168L81.934 96.763647z" fill="url(#x)"
          fill-opacity=".75" fill-rule="evenodd"/>
    <path d="M81.8742 96.71682l-.0134 11.78381 42.6512-12.57702.374-11.370665L81.8742 96.71682z" fill-rule="evenodd"/>
    <path d="M58.6951 74.348867l23.1527 23.480528c.0244-.911888.4168-1.180957 1.4317-1.508499L59.2814 72.645751l-.5784.128216-.0079 1.5749z"
          fill="url(#y)" fill-opacity=".75" fill-rule="evenodd"/>
    <path d="M94.3541 78.319005l23.5169 1.213786-19.2152-15.79842-15.3201 3.552659 11.0184 11.031975z" fill="url(#z)"
          fill-opacity=".75" fill-rule="evenodd"/>
    <path d="M72.4585 80.422876l4.6125 4.357762 7.6338-1.984326-4.7047-4.344754-7.5416 1.971318zm26.3286-6.542403l4.7229 4.080516 6.42-1.731237-4.652-3.947344-6.4909 1.598065z"
          fill-rule="evenodd"/>
    <path d="M124.315 84.216608c-.03.0031-.061.0093-.091.01846L83.1243 95.772105l-.0754.03741c-.2691.122642-.4807.233887-.6793.373996-.1985.14011-.3736.31057-.5131.523521-.1396.213076-.2456.461829-.2868.710582-.038.229675-.0242.45328-.0151.673169h-.0151l-.0755 9.723047c-.0038.25483.1028.49255.2793.62325.1766.13069.3961.13428.5754.009.1793-.12487.2909-.35901.2924-.61383l.0755-9.723051v-.05612c-.0085-.172318.0047-.273529.0151-.336585.0104-.06305.022-.07656.0453-.112236.0233-.03555.0664-.106042.1811-.186936.1147-.08089.2944-.173929.5283-.280467l41.0246-11.517914c.294-.0804.487-.428133.444-.796803-.044-.368546-.31-.632908-.61-.605654v.000124z"
          fill="#fff" fill-rule="evenodd"/>
</svg>
